<svg width="31" height="32" viewBox="0 0 31 32" fill="none" xmlns="http://www.w3.org/2000/svg">
<path d="M11.9828 10.091H12.3709C16.2908 12.2031 20.0166 14.7064 23.8977 16.9358C24.7904 17.6008 24.4023 18.9306 23.3156 19.0089H1.07691C-0.00979261 18.9306 -0.397902 17.6008 0.494749 16.9358L11.944 10.091H11.9828Z" fill="#E5A97C"/>
<path d="M28.7875 6.17994C26.847 6.96221 24.9065 7.97916 22.9659 8.72231C21.0254 9.46547 22.3837 8.99611 22.0344 8.95699L13.8453 5.47589C13.0691 5.00653 13.0691 3.95046 13.8453 3.4811L22.0344 0C22.3837 0 22.6554 0.117341 22.9659 0.234681C25.4498 1.17341 27.8949 2.46415 30.3788 3.44199C30.7281 3.63756 30.961 3.95046 30.9998 4.3416V12.4381C30.8445 13.2595 29.9519 13.6506 29.2921 13.2204C28.6323 12.7901 28.7875 12.7119 28.7875 12.5163V6.14082V6.17994Z" fill="#E5A97C"/>
<path d="M2.00818 26.8318H22.3063C22.6556 26.8318 22.8884 27.0665 23.0825 27.3403C23.2766 27.6141 24.2468 29.4915 24.3244 29.8044C24.4797 30.4302 24.208 31.0169 23.587 31.2125H0.960287C0.300502 31.1343 -0.0876073 30.5867 0.0288254 29.9218C0.145258 29.2568 1.07672 27.6141 1.27077 27.3403C1.46483 27.0665 1.69769 26.8709 2.00818 26.8318Z" fill="#E5A97C"/>
<path d="M27.701 7.90084V10.2868C27.701 10.4823 27.3129 10.9517 27.1188 11.0299C25.644 11.6166 24.1692 12.6727 22.7332 13.2203C21.2972 13.7679 22.1122 13.4158 21.6077 13.2203C20.1717 12.6727 18.6581 11.5775 17.1832 10.9908C16.9892 10.8735 16.6011 10.4432 16.6011 10.2476V7.86172L21.4524 9.93474C21.957 10.0912 22.3451 10.0912 22.8496 9.93474L27.701 7.86172V7.90084Z" fill="#E5A97C"/>
<path d="M4.45343 20.1043H2.24121V25.6975H4.45343V20.1043Z" fill="#E5A97C"/>
<path d="M8.87775 20.1043H6.66553V25.6975H8.87775V20.1043Z" fill="#E5A97C"/>
<path d="M13.3021 20.1043H11.0898V25.6975H13.3021V20.1043Z" fill="#E5A97C"/>
<path d="M17.7269 20.1043H15.5146V25.6975H17.7269V20.1043Z" fill="#E5A97C"/>
<path d="M22.1512 20.1043H19.939V25.6975H22.1512V20.1043Z" fill="#E5A97C"/>
</svg>
