<svg width="27" height="27" viewBox="0 0 27 27" fill="none" xmlns="http://www.w3.org/2000/svg">
<path d="M10.3121 8.68433H10.6461C14.0195 10.502 17.2258 12.6562 20.5658 14.5749C21.334 15.1471 21 16.2915 20.0648 16.3588H0.926766C-0.00842729 16.2915 -0.342425 15.1471 0.425769 14.5749L10.2787 8.68433H10.3121Z" fill="#486776"/>
<path d="M24.7741 5.31831C23.1041 5.99151 21.4341 6.86668 19.7641 7.50622C18.0941 8.14576 19.2631 7.74184 18.9625 7.70818L11.9152 4.71243C11.2472 4.3085 11.2472 3.39968 11.9152 2.99576L18.9625 0C19.2631 0 19.4969 0.100981 19.7641 0.201961C21.9017 1.00981 24.0059 2.12059 26.1435 2.9621C26.4441 3.1304 26.6445 3.39968 26.6779 3.73628V10.7039C26.5443 11.4108 25.7761 11.7474 25.2083 11.3771C24.6405 11.0069 24.7741 10.9396 24.7741 10.7713V5.28465V5.31831Z" fill="#486776"/>
<path d="M1.72825 23.0908H19.1963C19.4969 23.0908 19.6973 23.2928 19.8643 23.5284C20.0313 23.764 20.8663 25.3797 20.9331 25.649C21.0667 26.1876 20.8329 26.6925 20.2985 26.8608H0.826459C0.258664 26.7934 -0.0753341 26.3222 0.0248652 25.75C0.125064 25.1778 0.926658 23.764 1.09366 23.5284C1.26066 23.2928 1.46105 23.1245 1.72825 23.0908Z" fill="#486776"/>
<path d="M23.8389 6.79928V8.85256C23.8389 9.02086 23.505 9.42478 23.338 9.4921C22.0688 9.997 20.7996 10.9058 19.5638 11.3771C18.328 11.8483 19.0294 11.5454 18.5952 11.3771C17.3594 10.9058 16.0568 9.96334 14.7876 9.45844C14.6206 9.35746 14.2866 8.9872 14.2866 8.8189V6.76562L18.4616 8.54961C18.8958 8.68425 19.2298 8.68425 19.664 8.54961L23.8389 6.76562V6.79928Z" fill="#486776"/>
<path d="M3.8325 17.3013H1.92871V22.1147H3.8325V17.3013Z" fill="#486776"/>
<path d="M7.64011 17.3013H5.73633V22.1147H7.64011V17.3013Z" fill="#486776"/>
<path d="M11.4477 17.3013H9.54395V22.1147H11.4477V17.3013Z" fill="#486776"/>
<path d="M15.2552 17.3013H13.3514V22.1147H15.2552V17.3013Z" fill="#486776"/>
<path d="M19.0627 17.3013H17.1589V22.1147H19.0627V17.3013Z" fill="#486776"/>
</svg>
